<mxfile host="Electron" agent="Mozilla/5.0 (Windows NT 10.0; Win64; x64) AppleWebKit/537.36 (KHTML, like Gecko) draw.io/28.1.2 Chrome/138.0.7204.243 Electron/37.4.0 Safari/537.36" version="28.1.2">
  <diagram name="Page-1" id="5f0bae14-7c28-e335-631c-24af17079c00">
    <mxGraphModel dx="1252" dy="750" grid="1" gridSize="10" guides="1" tooltips="1" connect="1" arrows="1" fold="1" page="1" pageScale="1" pageWidth="1100" pageHeight="850" background="none" math="0" shadow="0">
      <root>
        <mxCell id="0" />
        <mxCell id="1" parent="0" />
        <mxCell id="39150e848f15840c-1" value="Major Components in BedBrigade.Client" style="verticalAlign=top;align=left;spacingTop=8;spacingLeft=2;spacingRight=12;shape=cube;size=10;direction=south;fontStyle=4;html=1;rounded=0;shadow=0;comic=0;labelBackgroundColor=none;strokeWidth=1;fontFamily=Verdana;fontSize=12;fillColor=#99CCFF;" parent="1" vertex="1">
          <mxGeometry x="60" y="30" width="540" height="340" as="geometry" />
        </mxCell>
        <mxCell id="39150e848f15840c-2" value="Major Components in BedBrigade.Data" style="verticalAlign=top;align=left;spacingTop=8;spacingLeft=2;spacingRight=12;shape=cube;size=10;direction=south;fontStyle=4;html=1;rounded=0;shadow=0;comic=0;labelBackgroundColor=none;strokeWidth=1;fontFamily=Verdana;fontSize=12;fillColor=#99CCFF;" parent="1" vertex="1">
          <mxGeometry x="60" y="440" width="370" height="400" as="geometry" />
        </mxCell>
        <mxCell id="39150e848f15840c-3" value="BedBrigade.Common" style="verticalAlign=top;align=left;spacingTop=8;spacingLeft=2;spacingRight=12;shape=cube;size=10;direction=south;fontStyle=4;html=1;rounded=0;shadow=0;comic=0;labelBackgroundColor=none;strokeWidth=1;fontFamily=Verdana;fontSize=12;fillColor=#99CCFF;" parent="1" vertex="1">
          <mxGeometry x="790" y="30" width="260" height="290" as="geometry" />
        </mxCell>
        <mxCell id="39150e848f15840c-5" value="Footer.razor" style="shape=component;align=left;spacingLeft=36;rounded=0;shadow=1;comic=0;labelBackgroundColor=none;strokeWidth=1;fontFamily=Verdana;fontSize=12;html=1;" parent="1" vertex="1">
          <mxGeometry x="245" y="70" width="150" height="60" as="geometry" />
        </mxCell>
        <mxCell id="39150e848f15840c-7" value="Word Reports" style="shape=component;align=left;spacingLeft=36;rounded=0;shadow=1;comic=0;labelBackgroundColor=none;strokeWidth=1;fontFamily=Verdana;fontSize=12;html=1;" parent="1" vertex="1">
          <mxGeometry x="80" y="590" width="130" height="60" as="geometry" />
        </mxCell>
        <mxCell id="39150e848f15840c-10" value="Models" style="shape=component;align=left;spacingLeft=36;rounded=0;shadow=1;comic=0;labelBackgroundColor=none;strokeWidth=1;fontFamily=Verdana;fontSize=12;html=1;" parent="1" vertex="1">
          <mxGeometry x="835" y="70" width="145" height="60" as="geometry" />
        </mxCell>
        <mxCell id="OOh4rg61yt-7VnNNi6C8-2" value="App.razor" style="shape=component;align=left;spacingLeft=36;rounded=0;shadow=1;comic=0;labelBackgroundColor=none;strokeWidth=1;fontFamily=Verdana;fontSize=12;html=1;" parent="1" vertex="1">
          <mxGeometry x="70" y="70" width="150" height="60" as="geometry" />
        </mxCell>
        <mxCell id="OOh4rg61yt-7VnNNi6C8-3" value="Excel Reports" style="shape=component;align=left;spacingLeft=36;rounded=0;shadow=1;comic=0;labelBackgroundColor=none;strokeWidth=1;fontFamily=Verdana;fontSize=12;html=1;" parent="1" vertex="1">
          <mxGeometry x="80" y="670" width="130" height="60" as="geometry" />
        </mxCell>
        <mxCell id="OOh4rg61yt-7VnNNi6C8-5" value="EntityFramework.&lt;br&gt;SQL Server" style="shape=component;align=left;spacingLeft=36;rounded=0;shadow=1;comic=0;labelBackgroundColor=none;strokeWidth=1;fontFamily=Verdana;fontSize=12;html=1;" parent="1" vertex="1">
          <mxGeometry x="230" y="590" width="160" height="60" as="geometry" />
        </mxCell>
        <mxCell id="OOh4rg61yt-7VnNNi6C8-6" value="EntityFramework&lt;br&gt;" style="shape=component;align=left;spacingLeft=36;rounded=0;shadow=1;comic=0;labelBackgroundColor=none;strokeWidth=1;fontFamily=Verdana;fontSize=12;html=1;" parent="1" vertex="1">
          <mxGeometry x="230" y="505" width="160" height="60" as="geometry" />
        </mxCell>
        <mxCell id="OOh4rg61yt-7VnNNi6C8-7" value="Serilog" style="shape=component;align=left;spacingLeft=36;rounded=0;shadow=1;comic=0;labelBackgroundColor=none;strokeWidth=1;fontFamily=Verdana;fontSize=12;html=1;" parent="1" vertex="1">
          <mxGeometry x="80" y="750" width="130" height="60" as="geometry" />
        </mxCell>
        <mxCell id="OOh4rg61yt-7VnNNi6C8-10" value="KellermanSoftware.&lt;br&gt;Caching" style="shape=component;align=left;spacingLeft=36;rounded=0;shadow=1;comic=0;labelBackgroundColor=none;strokeWidth=1;fontFamily=Verdana;fontSize=12;html=1;" parent="1" vertex="1">
          <mxGeometry x="225" y="670" width="165" height="60" as="geometry" />
        </mxCell>
        <mxCell id="OOh4rg61yt-7VnNNi6C8-16" value="Unit Tests" style="verticalAlign=top;align=left;spacingTop=8;spacingLeft=2;spacingRight=12;shape=cube;size=10;direction=south;fontStyle=4;html=1;rounded=0;shadow=0;comic=0;labelBackgroundColor=none;strokeWidth=1;fontFamily=Verdana;fontSize=12;fillColor=#99CCFF;" parent="1" vertex="1">
          <mxGeometry x="710" y="480" width="310" height="150" as="geometry" />
        </mxCell>
        <mxCell id="OOh4rg61yt-7VnNNi6C8-17" value="NUnit" style="shape=component;align=left;spacingLeft=36;rounded=0;shadow=1;comic=0;labelBackgroundColor=none;strokeWidth=1;fontFamily=Verdana;fontSize=12;html=1;" parent="1" vertex="1">
          <mxGeometry x="720" y="525" width="120" height="60" as="geometry" />
        </mxCell>
        <mxCell id="OOh4rg61yt-7VnNNi6C8-18" value="MOQ" style="shape=component;align=left;spacingLeft=36;rounded=0;shadow=1;comic=0;labelBackgroundColor=none;strokeWidth=1;fontFamily=Verdana;fontSize=12;html=1;" parent="1" vertex="1">
          <mxGeometry x="850" y="525" width="120" height="60" as="geometry" />
        </mxCell>
        <mxCell id="sWge7gFmuycMHtnNiFUA-1" value="Routes.razor" style="shape=component;align=left;spacingLeft=36;rounded=0;shadow=1;comic=0;labelBackgroundColor=none;strokeWidth=1;fontFamily=Verdana;fontSize=12;html=1;" parent="1" vertex="1">
          <mxGeometry x="70" y="145" width="150" height="60" as="geometry" />
        </mxCell>
        <mxCell id="sWge7gFmuycMHtnNiFUA-2" value="MainLayout.razor" style="shape=component;align=left;spacingLeft=36;rounded=0;shadow=1;comic=0;labelBackgroundColor=none;strokeWidth=1;fontFamily=Verdana;fontSize=12;html=1;" parent="1" vertex="1">
          <mxGeometry x="70" y="225" width="150" height="60" as="geometry" />
        </mxCell>
        <mxCell id="sWge7gFmuycMHtnNiFUA-3" value="Index.razor" style="shape=component;align=left;spacingLeft=36;rounded=0;shadow=1;comic=0;labelBackgroundColor=none;strokeWidth=1;fontFamily=Verdana;fontSize=12;html=1;" parent="1" vertex="1">
          <mxGeometry x="245" y="145" width="150" height="60" as="geometry" />
        </mxCell>
        <mxCell id="sWge7gFmuycMHtnNiFUA-4" value="CheckAuth.razor" style="shape=component;align=left;spacingLeft=36;rounded=0;shadow=1;comic=0;labelBackgroundColor=none;strokeWidth=1;fontFamily=Verdana;fontSize=12;html=1;" parent="1" vertex="1">
          <mxGeometry x="245" y="225" width="150" height="60" as="geometry" />
        </mxCell>
        <mxCell id="sWge7gFmuycMHtnNiFUA-5" value="LoadImagesService" style="shape=component;align=left;spacingLeft=36;rounded=0;shadow=1;comic=0;labelBackgroundColor=none;strokeWidth=1;fontFamily=Verdana;fontSize=12;html=1;" parent="1" vertex="1">
          <mxGeometry x="415" y="70" width="165" height="60" as="geometry" />
        </mxCell>
        <mxCell id="sWge7gFmuycMHtnNiFUA-6" value="Address&lt;br&gt;Parser" style="shape=component;align=left;spacingLeft=36;rounded=0;shadow=1;comic=0;labelBackgroundColor=none;strokeWidth=1;fontFamily=Verdana;fontSize=12;html=1;" parent="1" vertex="1">
          <mxGeometry x="225" y="750" width="165" height="60" as="geometry" />
        </mxCell>
        <mxCell id="sWge7gFmuycMHtnNiFUA-7" value="LocationState" style="shape=component;align=left;spacingLeft=36;rounded=0;shadow=1;comic=0;labelBackgroundColor=none;strokeWidth=1;fontFamily=Verdana;fontSize=12;html=1;" parent="1" vertex="1">
          <mxGeometry x="415" y="145" width="165" height="60" as="geometry" />
        </mxCell>
        <mxCell id="I240dwGZm49hLjMi5ZQa-1" value="LanguageService" style="shape=component;align=left;spacingLeft=36;rounded=0;shadow=1;comic=0;labelBackgroundColor=none;strokeWidth=1;fontFamily=Verdana;fontSize=12;html=1;" parent="1" vertex="1">
          <mxGeometry x="410" y="225" width="170" height="60" as="geometry" />
        </mxCell>
        <mxCell id="I240dwGZm49hLjMi5ZQa-2" value="Header.razor" style="shape=component;align=left;spacingLeft=36;rounded=0;shadow=1;comic=0;labelBackgroundColor=none;strokeWidth=1;fontFamily=Verdana;fontSize=12;html=1;" parent="1" vertex="1">
          <mxGeometry x="70" y="300" width="150" height="60" as="geometry" />
        </mxCell>
        <mxCell id="I240dwGZm49hLjMi5ZQa-3" value="ToastService" style="shape=component;align=left;spacingLeft=36;rounded=0;shadow=1;comic=0;labelBackgroundColor=none;strokeWidth=1;fontFamily=Verdana;fontSize=12;html=1;" parent="1" vertex="1">
          <mxGeometry x="245" y="300" width="150" height="60" as="geometry" />
        </mxCell>
        <mxCell id="I240dwGZm49hLjMi5ZQa-4" value="Syncfusion" style="shape=component;align=left;spacingLeft=36;rounded=0;shadow=1;comic=0;labelBackgroundColor=none;strokeWidth=1;fontFamily=Verdana;fontSize=12;html=1;" parent="1" vertex="1">
          <mxGeometry x="410" y="300" width="170" height="60" as="geometry" />
        </mxCell>
        <mxCell id="NoGJBtoFjehfJ2DBhYIX-1" value="Common Logic" style="shape=component;align=left;spacingLeft=36;rounded=0;shadow=1;comic=0;labelBackgroundColor=none;strokeWidth=1;fontFamily=Verdana;fontSize=12;html=1;" vertex="1" parent="1">
          <mxGeometry x="835" y="220" width="145" height="60" as="geometry" />
        </mxCell>
        <mxCell id="NoGJBtoFjehfJ2DBhYIX-2" value="Constants" style="shape=component;align=left;spacingLeft=36;rounded=0;shadow=1;comic=0;labelBackgroundColor=none;strokeWidth=1;fontFamily=Verdana;fontSize=12;html=1;" vertex="1" parent="1">
          <mxGeometry x="835" y="145" width="145" height="60" as="geometry" />
        </mxCell>
        <mxCell id="NoGJBtoFjehfJ2DBhYIX-3" value="Services" style="shape=component;align=left;spacingLeft=36;rounded=0;shadow=1;comic=0;labelBackgroundColor=none;strokeWidth=1;fontFamily=Verdana;fontSize=12;html=1;" vertex="1" parent="1">
          <mxGeometry x="80" y="505" width="130" height="60" as="geometry" />
        </mxCell>
        <mxCell id="NoGJBtoFjehfJ2DBhYIX-7" style="edgeStyle=orthogonalEdgeStyle;rounded=0;orthogonalLoop=1;jettySize=auto;html=1;" edge="1" parent="1" source="NoGJBtoFjehfJ2DBhYIX-4" target="39150e848f15840c-2">
          <mxGeometry relative="1" as="geometry">
            <Array as="points">
              <mxPoint x="570" y="735" />
              <mxPoint x="570" y="690" />
            </Array>
          </mxGeometry>
        </mxCell>
        <mxCell id="NoGJBtoFjehfJ2DBhYIX-4" value="Integration Tests" style="verticalAlign=top;align=left;spacingTop=8;spacingLeft=2;spacingRight=12;shape=cube;size=10;direction=south;fontStyle=4;html=1;rounded=0;shadow=0;comic=0;labelBackgroundColor=none;strokeWidth=1;fontFamily=Verdana;fontSize=12;fillColor=#99CCFF;" vertex="1" parent="1">
          <mxGeometry x="710" y="660" width="310" height="150" as="geometry" />
        </mxCell>
        <mxCell id="NoGJBtoFjehfJ2DBhYIX-5" value="NUnit" style="shape=component;align=left;spacingLeft=36;rounded=0;shadow=1;comic=0;labelBackgroundColor=none;strokeWidth=1;fontFamily=Verdana;fontSize=12;html=1;" vertex="1" parent="1">
          <mxGeometry x="740" y="705" width="120" height="60" as="geometry" />
        </mxCell>
        <mxCell id="NoGJBtoFjehfJ2DBhYIX-8" style="edgeStyle=orthogonalEdgeStyle;rounded=0;orthogonalLoop=1;jettySize=auto;html=1;entryX=-0.005;entryY=0.317;entryDx=0;entryDy=0;entryPerimeter=0;" edge="1" parent="1" source="39150e848f15840c-1" target="39150e848f15840c-2">
          <mxGeometry relative="1" as="geometry">
            <Array as="points">
              <mxPoint x="313" y="390" />
              <mxPoint x="313" y="390" />
            </Array>
          </mxGeometry>
        </mxCell>
        <mxCell id="NoGJBtoFjehfJ2DBhYIX-9" style="edgeStyle=orthogonalEdgeStyle;rounded=0;orthogonalLoop=1;jettySize=auto;html=1;entryX=0.36;entryY=1.011;entryDx=0;entryDy=0;entryPerimeter=0;" edge="1" parent="1" source="39150e848f15840c-1" target="39150e848f15840c-3">
          <mxGeometry relative="1" as="geometry">
            <Array as="points">
              <mxPoint x="660" y="200" />
              <mxPoint x="660" y="134" />
            </Array>
          </mxGeometry>
        </mxCell>
        <mxCell id="NoGJBtoFjehfJ2DBhYIX-10" style="edgeStyle=orthogonalEdgeStyle;rounded=0;orthogonalLoop=1;jettySize=auto;html=1;entryX=0.783;entryY=1.001;entryDx=0;entryDy=0;entryPerimeter=0;" edge="1" parent="1" source="39150e848f15840c-2" target="39150e848f15840c-3">
          <mxGeometry relative="1" as="geometry">
            <Array as="points">
              <mxPoint x="660" y="530" />
              <mxPoint x="660" y="257" />
            </Array>
          </mxGeometry>
        </mxCell>
        <mxCell id="NoGJBtoFjehfJ2DBhYIX-11" style="edgeStyle=orthogonalEdgeStyle;rounded=0;orthogonalLoop=1;jettySize=auto;html=1;" edge="1" parent="1" source="OOh4rg61yt-7VnNNi6C8-16" target="39150e848f15840c-2">
          <mxGeometry relative="1" as="geometry">
            <mxPoint x="520" y="600" as="targetPoint" />
            <Array as="points">
              <mxPoint x="865" y="640" />
              <mxPoint x="570" y="640" />
              <mxPoint x="570" y="600" />
            </Array>
          </mxGeometry>
        </mxCell>
        <mxCell id="NoGJBtoFjehfJ2DBhYIX-12" style="edgeStyle=orthogonalEdgeStyle;rounded=0;orthogonalLoop=1;jettySize=auto;html=1;entryX=1.009;entryY=0.637;entryDx=0;entryDy=0;entryPerimeter=0;" edge="1" parent="1" source="OOh4rg61yt-7VnNNi6C8-16" target="39150e848f15840c-3">
          <mxGeometry relative="1" as="geometry">
            <Array as="points">
              <mxPoint x="884" y="440" />
              <mxPoint x="884" y="440" />
            </Array>
          </mxGeometry>
        </mxCell>
        <mxCell id="NoGJBtoFjehfJ2DBhYIX-13" style="edgeStyle=orthogonalEdgeStyle;rounded=0;orthogonalLoop=1;jettySize=auto;html=1;" edge="1" parent="1" source="NoGJBtoFjehfJ2DBhYIX-4" target="39150e848f15840c-3">
          <mxGeometry relative="1" as="geometry">
            <mxPoint x="990" y="350" as="targetPoint" />
            <Array as="points">
              <mxPoint x="1070" y="735" />
              <mxPoint x="1070" y="360" />
              <mxPoint x="920" y="360" />
            </Array>
          </mxGeometry>
        </mxCell>
      </root>
    </mxGraphModel>
  </diagram>
</mxfile>
